<svg xmlns="http://www.w3.org/2000/svg" xmlns:xlink="http://www.w3.org/1999/xlink" width="512" viewBox="0 0 384 391.91998" height="512" preserveAspectRatio="xMidYMid meet"><defs></defs><g clip-path="url(#0069d32adf)"><path fill="#fefefe" d="M 80.234375 240.523438 C 80.941406 234.617188 86.285156 234.15625 96.277344 239.222656 C 98.210938 235.074219 100.78125 233.59375 103.980469 234.828125 C 126.8125 270.847656 149.433594 258.359375 156.503906 273.066406 C 159.28125 271.550781 154.847656 263.636719 152.878906 261.914062 C 142.324219 252.941406 132.335938 240.667969 122.871094 225.152344 C 118.757812 212.839844 149.433594 225.363281 155.625 240.984375 C 154.707031 231.378906 150.242188 218.785156 142.21875 203.164062 C 140.425781 183.921875 184.925781 251.640625 190.800781 248.441406 C 195.023438 223.253906 236.851562 266.453125 242.445312 271.515625 C 243.113281 271.941406 205.296875 205.3125 224.257812 227.121094 C 231.152344 235.039062 239.699219 239.503906 249.902344 240.523438 C 239.59375 229.832031 230.167969 217.027344 221.546875 202.074219 C 212.894531 196.867188 208.566406 190.640625 208.601562 183.394531 C 202.410156 146.457031 223.128906 192.367188 231.433594 194.582031 C 231.855469 187.511719 229.53125 178.328125 224.503906 167.039062 C 221.757812 160.882812 210.675781 154.65625 215.425781 145.894531 C 218.699219 139.773438 237.695312 175.09375 240.683594 179.878906 C 256.164062 206.71875 253.207031 174.425781 268.582031 194.160156 C 268.089844 198.277344 268.300781 202.390625 269.25 206.472656 C 276.285156 215.371094 284.410156 224.308594 293.664062 233.277344 C 295.84375 233.136719 292.785156 225.820312 284.410156 211.292969 C 289.933594 211.1875 295.070312 212.136719 299.785156 214.140625 C 321.277344 246.609375 336.511719 262.511719 345.515625 261.84375 C 330.988281 239.75 316.210938 219.664062 301.121094 201.617188 C 294.507812 201.40625 286.839844 200.984375 278.042969 200.316406 C 273.363281 195.707031 267.242188 183.21875 261.371094 181.988281 C 254.828125 180.617188 249.621094 177.835938 245.75 173.722656 C 236.359375 157.082031 227.703125 144.59375 219.789062 136.363281 C 215.320312 131.191406 211.203125 130.804688 207.476562 135.273438 C 191.996094 150.046875 177.117188 167.566406 162.871094 187.792969 C 157.242188 197.574219 151.964844 196.832031 147.039062 185.578125 C 143.769531 178.152344 140.636719 174.460938 137.613281 174.601562 C 127.445312 188.109375 115.941406 202.320312 103.101562 217.238281 C 97.542969 218.679688 92.054688 219.839844 86.601562 220.753906 C 69.402344 235.039062 53.359375 250.796875 38.480469 268 C 42.242188 269.546875 48.257812 264.972656 56.492188 254.386719 C 57.792969 255.265625 59.550781 255.265625 61.765625 254.386719 C 76.367188 235.953125 96.59375 264.726562 92.160156 253.402344 C 91.140625 250.832031 87.167969 246.539062 80.234375 240.523438 Z M 80.234375 240.523438 " fill-opacity="1" fill-rule="evenodd"></path></g><path fill="#ffffff" d="M 204.207031 80.101562 L 176.964844 73.574219 L 177.042969 73.234375 L 176.25 73.753906 L 176.054688 74.398438 L 175.507812 74.234375 C 171.3125 76.914062 166.207031 79.757812 157.933594 84.15625 L 140.167969 94.519531 L 122.992188 129.375 L 126.484375 155.636719 C 124.40625 160.070312 122.300781 164.503906 120.191406 168.925781 C 114.382812 171.742188 108.542969 174.519531 102.722656 177.308594 C 93.914062 173.808594 85.085938 170.34375 76.292969 166.804688 C 71.167969 161.679688 66.03125 156.570312 60.898438 151.453125 L 76.609375 135.320312 L 77.101562 135.800781 L 61.863281 151.445312 L 76.679688 166.21875 L 102.699219 176.5625 L 119.671875 168.414062 L 125.777344 155.527344 L 122.285156 129.257812 C 128.089844 117.546875 133.964844 105.796875 139.644531 94.03125 C 151.890625 87.015625 162.96875 80.699219 175.4375 74.0625 L 184.671875 43.847656 L 185.328125 44.046875 L 176.382812 73.328125 L 202.007812 52.632812 L 202.4375 53.171875 C 188.941406 64.066406 183.945312 68.597656 177.425781 72.976562 L 204.367188 79.433594 Z M 204.207031 80.101562 " fill-opacity="1" fill-rule="nonzero"></path><path fill="#ffffff" d="M 76.171875 155.402344 C 76.6875 155.953125 79.496094 159.167969 79.679688 163.378906 C 83.003906 163.980469 88.410156 163.722656 88.136719 164.480469 C 87.582031 166.679688 83.886719 166.769531 81.605469 169.292969 C 82.234375 172.203125 84.050781 173.914062 83.875 177.617188 C 82.292969 177.820312 79.335938 174.109375 76.652344 173.078125 C 74.382812 173.351562 74.414062 175.425781 69.984375 176.996094 C 69.738281 174.394531 71.691406 172.132812 71.5625 169.15625 C 69.199219 167.445312 64.964844 165.167969 64.824219 163.722656 C 65.035156 162.898438 73.421875 164.070312 73.832031 163.378906 C 75.320312 159.578125 75.074219 157.878906 76.171875 155.402344 Z M 76.171875 155.402344 " fill-opacity="1" fill-rule="evenodd"></path><path fill="#ffffff" d="M 122.324219 118.207031 C 122.839844 118.757812 125.648438 121.972656 125.832031 126.183594 C 129.15625 126.785156 134.5625 126.527344 134.289062 127.285156 C 133.734375 129.484375 130.039062 129.574219 127.757812 132.097656 C 128.386719 135.003906 130.203125 136.71875 130.027344 140.417969 C 128.445312 140.625 125.488281 136.910156 122.804688 135.878906 C 120.535156 136.15625 120.566406 138.230469 116.136719 139.800781 C 115.890625 137.199219 117.839844 134.9375 117.714844 131.960938 C 115.347656 130.246094 111.117188 127.96875 110.976562 126.527344 C 111.1875 125.699219 119.574219 126.871094 119.984375 126.183594 C 121.472656 122.382812 121.222656 120.683594 122.324219 118.207031 Z M 122.324219 118.207031 " fill-opacity="1" fill-rule="evenodd"></path><path fill="#ffffff" d="M 157.453125 72.742188 C 157.96875 73.292969 160.78125 76.507812 160.960938 80.71875 C 164.285156 81.320312 169.691406 81.0625 169.421875 81.820312 C 168.867188 84.019531 165.167969 84.109375 162.886719 86.636719 C 163.515625 89.542969 165.332031 91.253906 165.15625 94.957031 C 163.574219 95.164062 160.617188 91.449219 157.9375 90.417969 C 155.667969 90.691406 155.695312 92.765625 151.265625 94.335938 C 151.019531 91.734375 152.972656 89.476562 152.847656 86.496094 C 150.480469 84.785156 146.25 82.507812 146.105469 81.066406 C 146.316406 80.238281 154.703125 81.410156 155.117188 80.71875 C 156.605469 76.921875 156.351562 75.21875 157.453125 72.742188 Z M 157.453125 72.742188 " fill-opacity="1" fill-rule="evenodd"></path><path fill="#ffffff" d="M 77.011719 130.007812 C 76.753906 130.28125 75.351562 131.886719 75.257812 133.992188 C 73.597656 134.292969 70.894531 134.164062 71.03125 134.542969 C 71.308594 135.644531 73.15625 135.6875 74.296875 136.953125 C 73.980469 138.40625 73.074219 139.261719 73.160156 141.113281 C 73.953125 141.214844 75.429688 139.359375 76.773438 138.84375 C 77.90625 138.980469 77.890625 140.015625 80.105469 140.800781 C 80.230469 139.5 79.253906 138.371094 79.316406 136.882812 C 80.5 136.027344 82.613281 134.886719 82.6875 134.167969 C 82.582031 133.753906 78.386719 134.335938 78.179688 133.992188 C 77.4375 132.09375 77.5625 131.242188 77.011719 130.007812 Z M 77.011719 130.007812 " fill-opacity="1" fill-rule="evenodd"></path><g clip-path="url(#a96721c121)"><path fill="#ffffff" d="M 185.15625 38.390625 C 184.898438 38.667969 183.496094 40.273438 183.40625 42.378906 C 181.742188 42.679688 179.039062 42.550781 179.175781 42.929688 C 179.453125 44.03125 181.300781 44.074219 182.441406 45.335938 C 182.125 46.792969 181.21875 47.648438 181.308594 49.496094 C 182.097656 49.601562 183.578125 47.742188 184.917969 47.226562 C 186.050781 47.367188 186.039062 48.402344 188.253906 49.1875 C 188.375 47.886719 187.398438 46.757812 187.460938 45.269531 C 188.644531 44.410156 190.761719 43.273438 190.832031 42.550781 C 190.726562 42.136719 186.535156 42.722656 186.328125 42.378906 C 185.582031 40.480469 185.710938 39.628906 185.15625 38.390625 Z M 185.15625 38.390625 " fill-opacity="1" fill-rule="evenodd"></path></g><path fill="#ffffff" d="M 202.378906 47.347656 C 202.121094 47.621094 200.71875 49.226562 200.625 51.335938 C 198.964844 51.636719 196.261719 51.503906 196.398438 51.886719 C 196.675781 52.984375 198.523438 53.03125 199.664062 54.292969 C 199.347656 55.746094 198.441406 56.601562 198.527344 58.453125 C 199.320312 58.554688 200.796875 56.699219 202.140625 56.183594 C 203.273438 56.320312 203.257812 57.359375 205.472656 58.144531 C 205.597656 56.84375 204.621094 55.710938 204.683594 54.222656 C 205.867188 53.367188 207.980469 52.226562 208.050781 51.507812 C 207.945312 51.09375 203.753906 51.679688 203.550781 51.335938 C 202.804688 49.433594 202.929688 48.585938 202.378906 47.347656 Z M 202.378906 47.347656 " fill-opacity="1" fill-rule="evenodd"></path><g clip-path="url(#9b6f2a527a)"><path fill="#ffffff" d="M 204.445312 74.210938 C 204.1875 74.484375 202.785156 76.09375 202.691406 78.199219 C 201.03125 78.5 198.328125 78.371094 198.460938 78.75 C 198.742188 79.847656 200.589844 79.894531 201.730469 81.15625 C 201.414062 82.609375 200.507812 83.464844 200.59375 85.316406 C 201.386719 85.421875 202.863281 83.5625 204.207031 83.046875 C 205.339844 83.183594 205.324219 84.222656 207.539062 85.007812 C 207.664062 83.707031 206.6875 82.574219 206.75 81.085938 C 207.933594 80.230469 210.046875 79.09375 210.117188 78.371094 C 210.011719 77.957031 205.820312 78.542969 205.613281 78.199219 C 204.871094 76.300781 204.996094 75.449219 204.445312 74.210938 Z M 204.445312 74.210938 " fill-opacity="1" fill-rule="evenodd"></path></g><g clip-path="url(#f1b6d49772)"><path fill="#ffffff" d="M 61.378906 146.628906 C 61.757812 147.859375 61.660156 149.308594 62.34375 150.003906 C 62.726562 150.835938 64.972656 151.070312 66.203125 151.449219 C 64.972656 151.828125 64.023438 152.296875 62.828125 152.894531 C 62.03125 153.628906 61.757812 155.042969 61.378906 156.269531 C 61.003906 155.042969 60.601562 153.742188 59.933594 152.414062 C 59.46875 151.882812 57.789062 151.828125 56.558594 151.449219 C 57.789062 151.070312 59.386719 150.703125 59.933594 150.003906 C 60.585938 149.308594 61.003906 147.859375 61.378906 146.628906 Z M 61.378906 146.628906 " fill-opacity="1" fill-rule="evenodd"></path></g><g clip-path="url(#0caea442b2)"><path fill="#ffffff" d="M 102.710938 172.113281 C 103.089844 173.34375 102.992188 174.792969 103.675781 175.488281 C 104.054688 176.320312 106.300781 176.558594 107.53125 176.9375 C 106.300781 177.3125 105.355469 177.785156 104.15625 178.382812 C 103.359375 179.113281 103.089844 180.527344 102.710938 181.757812 C 102.332031 180.527344 101.929688 179.230469 101.265625 177.902344 C 100.796875 177.367188 99.117188 177.3125 97.890625 176.9375 C 99.117188 176.558594 100.71875 176.1875 101.265625 175.488281 C 101.914062 174.792969 102.332031 173.34375 102.710938 172.113281 Z M 102.710938 172.113281 " fill-opacity="1" fill-rule="evenodd"></path></g><path fill="#ffffff" d="M 119.929688 163.847656 C 120.308594 165.078125 120.210938 166.527344 120.894531 167.222656 C 121.277344 168.054688 123.523438 168.292969 124.753906 168.667969 C 123.523438 169.046875 122.574219 169.519531 121.378906 170.117188 C 120.582031 170.847656 120.308594 172.261719 119.929688 173.492188 C 119.554688 172.261719 119.152344 170.964844 118.484375 169.632812 C 118.019531 169.101562 116.339844 169.046875 115.109375 168.667969 C 116.339844 168.292969 117.9375 167.921875 118.484375 167.222656 C 119.136719 166.527344 119.554688 165.078125 119.929688 163.847656 Z M 119.929688 163.847656 " fill-opacity="1" fill-rule="evenodd"></path><path fill="#ffffff" d="M 126.128906 150.761719 C 126.507812 151.992188 126.410156 153.441406 127.09375 154.136719 C 127.476562 154.96875 129.722656 155.203125 130.953125 155.582031 C 129.722656 155.960938 128.773438 156.429688 127.578125 157.027344 C 126.78125 157.761719 126.507812 159.175781 126.128906 160.402344 C 125.753906 159.175781 125.347656 157.875 124.683594 156.546875 C 124.21875 156.015625 122.539062 155.960938 121.308594 155.582031 C 122.539062 155.203125 124.136719 154.835938 124.683594 154.136719 C 125.335938 153.441406 125.753906 151.992188 126.128906 150.761719 Z M 126.128906 150.761719 " fill-opacity="1" fill-rule="evenodd"></path><path fill="#ffffff" d="M 139.90625 89.453125 C 140.285156 90.683594 140.1875 92.132812 140.871094 92.828125 C 141.25 93.664062 143.5 93.898438 144.730469 94.277344 C 143.5 94.652344 142.550781 95.125 141.355469 95.722656 C 140.558594 96.453125 140.285156 97.867188 139.90625 99.097656 C 139.53125 97.867188 139.125 96.570312 138.460938 95.242188 C 137.996094 94.707031 136.316406 94.652344 135.085938 94.277344 C 136.316406 93.898438 137.914062 93.53125 138.460938 92.828125 C 139.109375 92.132812 139.53125 90.683594 139.90625 89.453125 Z M 139.90625 89.453125 " fill-opacity="1" fill-rule="evenodd"></path><path fill="#ffffff" d="M 175.726562 69.480469 C 176.105469 70.707031 176.007812 72.15625 176.691406 72.855469 C 177.070312 73.6875 179.316406 73.921875 180.546875 74.300781 C 179.316406 74.679688 178.371094 75.148438 177.171875 75.746094 C 176.375 76.476562 176.105469 77.890625 175.726562 79.121094 C 175.347656 77.890625 174.945312 76.59375 174.28125 75.265625 C 173.816406 74.734375 172.136719 74.679688 170.90625 74.300781 C 172.136719 73.921875 173.734375 73.554688 174.28125 72.855469 C 174.929688 72.15625 175.347656 70.707031 175.726562 69.480469 Z M 175.726562 69.480469 " fill-opacity="1" fill-rule="evenodd"></path></svg>